<svg width="192" height="192" viewBox="0 0 192 192" fill="none" xmlns="http://www.w3.org/2000/svg">
  <rect width="192" height="192" rx="44" fill="#08111D"/>
  <rect x="20" y="20" width="152" height="152" rx="36" fill="url(#paint0_linear)"/>
  <path d="M61 109.5C61 87.1325 79.1325 69 101.5 69H127C131.418 69 135 72.5817 135 77V102.5C135 124.868 116.868 143 94.5 143H69C64.5817 143 61 139.418 61 135V109.5Z" fill="#08111D" fill-opacity="0.92"/>
  <path d="M74 58C74 50.268 80.268 44 88 44H104C111.732 44 118 50.268 118 58V75H74V58Z" fill="#08111D"/>
  <path d="M89 90V122" stroke="#6EE7F9" stroke-width="10" stroke-linecap="round"/>
  <path d="M103 96L75 110" stroke="#B6FFB3" stroke-width="10" stroke-linecap="round"/>
  <path d="M103 116L75 102" stroke="#FFD978" stroke-width="10" stroke-linecap="round"/>
  <defs>
    <linearGradient id="paint0_linear" x1="36" y1="28" x2="166" y2="172" gradientUnits="userSpaceOnUse">
      <stop stop-color="#67E8F9"/>
      <stop offset="0.52" stop-color="#38BDF8"/>
      <stop offset="1" stop-color="#86EFAC"/>
    </linearGradient>
  </defs>
</svg>
